<svg id="emy086DZBIl1" xmlns="http://www.w3.org/2000/svg" xmlns:xlink="http://www.w3.org/1999/xlink" viewBox="0 0 3927.533 3000" shape-rendering="geometricPrecision" text-rendering="geometricPrecision" project-id="fcd40953595c45f387c553019db0cdb0" export-id="e25ff656f1bc4b6f8a592b5025e53d14" cached="false"><g transform="matrix(.5 0 0 0.5-2033.295044-59.654053)"><g transform="translate(4066.59 4869.25)"><path d="M552.029,67.7c0,2.319596-1.880404,4.2-4.2,4.2s-4.2-1.880404-4.2-4.2s1.880404-4.2,4.2-4.2c2.31686.006591,4.193409,1.88314,4.2,4.2Z" transform="translate(3122.96 62.702)" fill="#fff"/><circle r="6.37" transform="translate(733.206 367.198)" fill="#fff"/><path d="M505.909,192.7c0,3.518054-2.851946,6.37-6.37,6.37s-6.37-2.851946-6.37-6.37s2.851946-6.37,6.37-6.37c3.512815.012615,6.357385,2.857185,6.37,6.37Z" transform="translate(2820.22 799.631)" fill="#fff"/><circle r="6.37" transform="translate(1176.49 598.394)" fill="#fff"/><circle r="6.37" transform="translate(2575.49 181.849)" fill="#fff"/><circle r="6.37" transform="translate(1368.91 1076.89)" fill="#fff"/><circle r="6.37" transform="translate(2851.07 1094.52)" fill="#fff"/><path d="M335.039,51.84c0,3.518054-2.851946,6.37-6.37,6.37s-6.37-2.851946-6.37-6.37s2.851946-6.37,6.37-6.37c3.512815.012615,6.357385,2.857185,6.37,6.37Z" transform="translate(1795.07-45.47)" fill="#fff"/><circle r="13.509" transform="translate(1106.979 25.128)" fill="#fff"/><circle r="10.079" transform="translate(370.907 395.406)" fill="#fff"/><path d="M56.079,231.259c0,4.076575-2.45567,7.751744-6.221934,9.311782s-8.101421.697721-10.983995-2.184853-3.744891-7.217731-2.184853-10.983995s5.235207-6.221934,9.311782-6.221934c5.565792.001656,10.077344,4.513208,10.079,10.079Z" transform="translate(76.913 1008.72)" fill="#fff"/><path d="M598.189,215.949c-.000552,5.566348-4.513319,10.078368-10.079667,10.078s-10.078517-4.512985-10.078333-10.079333s4.512652-10.078667,10.079-10.078667c5.566182.001656,10.077896,4.513818,10.079,10.08Z" transform="translate(3329.34 916.862)" fill="#fff"/><path d="M46.818,158.649c0,7.460815-6.048185,13.509-13.509,13.509s-13.509-6.048185-13.509-13.509s6.048185-13.509,13.509-13.509c7.458986.004413,13.504587,6.050014,13.509,13.509Z" transform="translate(-19.8 552.508)" fill="#fff"/></g><g transform="translate(4066.66 4600.53)" opacity="0.55"><path d="M551.68,12.72c0,2.319596,1.880404,4.2,4.2,4.2s4.2-1.880404,4.2-4.2-1.880404-4.2-4.2-4.2c-2.31686.006591-4.193409,1.88314-4.2,4.2Z" transform="translate(3171.19 1.559)" fill="#fff"/><circle r="6.37" transform="translate(3194.33 427.255)" fill="#fff"/><circle r="6.37" transform="translate(607.704 1052.46)" fill="#fff"/><circle r="6.37" transform="translate(1916.56 816.361)" fill="#fff"/><circle r="6.37" transform="translate(1351.97 241.906)" fill="#fff"/><circle r="6.37" transform="translate(1076.4 1154.65)" fill="#fff"/><circle r="6.37" transform="translate(1803.79 66.426)" fill="#fff"/><circle r="13.509" transform="translate(2820.549 85.255)" fill="#fff"/><path d="M526.48,80.789c0,5.566348,4.512319,10.078816,10.078667,10.079s10.078965-4.511986,10.079333-10.078333-4.511652-10.079115-10.078-10.079667c-5.566182.001104-10.078344,4.512818-10.08,10.079Z" transform="translate(3020 374.673)" fill="#fff"/><circle r="10.079" transform="translate(803.901 10.079)" fill="#fff"/><circle r="10.079" transform="translate(2083.779 387.846)" fill="#fff"/><path d="M495.87,25.379c0,5.566348,4.512319,10.078816,10.078667,10.079s10.078965-4.511986,10.079333-10.078333-4.511652-10.079115-10.078-10.079667c-5.566182.001104-10.078344,4.512818-10.08,10.079Z" transform="translate(2836.35 42.237)" fill="#fff"/><path d="M561.92,201.449c0,5.566348,4.512319,10.078816,10.078667,10.079s10.078965-4.511986,10.079333-10.078333-4.511652-10.079115-10.078-10.079667c-5.566182.001104-10.078344,4.512818-10.08,10.079Z" transform="translate(3232.62 1098.58)" fill="#fff"/><path d="M19.81,186.149c0,5.566478,4.512522,10.079,10.079,10.079s10.079-4.512522,10.079-10.079-4.512522-10.079-10.079-10.079c-5.565792.001656-10.077344,4.513208-10.079,10.079Z" transform="translate(-19.81 1006.79)" fill="#fff"/><circle r="13.509" transform="translate(3913.959 771.213)" fill="#fff"/></g></g><g transform="matrix(.5 0 0 0.5-74.570088-830.86862)"><g transform="translate(4066.59 4869.25)"><path d="M552.029,67.7c0,2.319596-1.880404,4.2-4.2,4.2s-4.2-1.880404-4.2-4.2s1.880404-4.2,4.2-4.2c2.31686.006591,4.193409,1.88314,4.2,4.2Z" transform="translate(3122.96 62.702)" fill="#fff"/><circle r="6.37" transform="translate(733.206 367.198)" fill="#fff"/><path d="M505.909,192.7c0,3.518054-2.851946,6.37-6.37,6.37s-6.37-2.851946-6.37-6.37s2.851946-6.37,6.37-6.37c3.512815.012615,6.357385,2.857185,6.37,6.37Z" transform="translate(2820.22 799.631)" fill="#fff"/><circle r="6.37" transform="translate(1176.49 598.394)" fill="#fff"/><circle r="6.37" transform="translate(2575.49 181.849)" fill="#fff"/><circle r="6.37" transform="translate(1368.91 1076.89)" fill="#fff"/><circle r="6.37" transform="translate(2851.07 1094.52)" fill="#fff"/><path d="M335.039,51.84c0,3.518054-2.851946,6.37-6.37,6.37s-6.37-2.851946-6.37-6.37s2.851946-6.37,6.37-6.37c3.512815.012615,6.357385,2.857185,6.37,6.37Z" transform="translate(1795.07-45.47)" fill="#fff"/><circle r="13.509" transform="translate(1106.979 25.128)" fill="#fff"/><circle r="10.079" transform="translate(370.907 395.406)" fill="#fff"/><path d="M56.079,231.259c0,4.076575-2.45567,7.751744-6.221934,9.311782s-8.101421.697721-10.983995-2.184853-3.744891-7.217731-2.184853-10.983995s5.235207-6.221934,9.311782-6.221934c5.565792.001656,10.077344,4.513208,10.079,10.079Z" transform="translate(76.913 1008.72)" fill="#fff"/><path d="M598.189,215.949c-.000552,5.566348-4.513319,10.078368-10.079667,10.078s-10.078517-4.512985-10.078333-10.079333s4.512652-10.078667,10.079-10.078667c5.566182.001656,10.077896,4.513818,10.079,10.08Z" transform="translate(3329.34 916.862)" fill="#fff"/><path d="M46.818,158.649c0,7.460815-6.048185,13.509-13.509,13.509s-13.509-6.048185-13.509-13.509s6.048185-13.509,13.509-13.509c7.458986.004413,13.504587,6.050014,13.509,13.509Z" transform="translate(-19.8 552.508)" fill="#fff"/></g><g transform="translate(4066.66 4600.53)" opacity="0.55"><path d="M551.68,12.72c0,2.319596,1.880404,4.2,4.2,4.2s4.2-1.880404,4.2-4.2-1.880404-4.2-4.2-4.2c-2.31686.006591-4.193409,1.88314-4.2,4.2Z" transform="translate(3171.19 1.559)" fill="#fff"/><circle r="6.37" transform="translate(3194.33 427.255)" fill="#fff"/><circle r="6.37" transform="translate(607.704 1052.46)" fill="#fff"/><circle r="6.37" transform="translate(1916.56 816.361)" fill="#fff"/><circle r="6.37" transform="translate(1351.97 241.906)" fill="#fff"/><circle r="6.37" transform="translate(1076.4 1154.65)" fill="#fff"/><circle r="6.37" transform="translate(1803.79 66.426)" fill="#fff"/><circle r="13.509" transform="translate(2820.549 85.255)" fill="#fff"/><path d="M526.48,80.789c0,5.566348,4.512319,10.078816,10.078667,10.079s10.078965-4.511986,10.079333-10.078333-4.511652-10.079115-10.078-10.079667c-5.566182.001104-10.078344,4.512818-10.08,10.079Z" transform="translate(3020 374.673)" fill="#fff"/><circle r="10.079" transform="translate(803.901 10.079)" fill="#fff"/><circle r="10.079" transform="translate(2083.779 387.846)" fill="#fff"/><path d="M495.87,25.379c0,5.566348,4.512319,10.078816,10.078667,10.079s10.078965-4.511986,10.079333-10.078333-4.511652-10.079115-10.078-10.079667c-5.566182.001104-10.078344,4.512818-10.08,10.079Z" transform="translate(2836.35 42.237)" fill="#fff"/><path d="M561.92,201.449c0,5.566348,4.512319,10.078816,10.078667,10.079s10.078965-4.511986,10.079333-10.078333-4.511652-10.079115-10.078-10.079667c-5.566182.001104-10.078344,4.512818-10.08,10.079Z" transform="translate(3232.62 1098.58)" fill="#fff"/><path d="M19.81,186.149c0,5.566478,4.512522,10.079,10.079,10.079s10.079-4.512522,10.079-10.079-4.512522-10.079-10.079-10.079c-5.565792.001656-10.077344,4.513208-10.079,10.079Z" transform="translate(-19.81 1006.79)" fill="#fff"/><circle r="13.509" transform="translate(3913.959 771.213)" fill="#fff"/></g></g><g transform="matrix(-.5 0 0 0.5 5954.078377-1581.018173)"><g transform="translate(4066.59 4869.25)"><path d="M552.029,67.7c0,2.319596-1.880404,4.2-4.2,4.2s-4.2-1.880404-4.2-4.2s1.880404-4.2,4.2-4.2c2.31686.006591,4.193409,1.88314,4.2,4.2Z" transform="translate(3122.96 62.702)" fill="#fff"/><circle r="6.37" transform="translate(733.206 367.198)" fill="#fff"/><path d="M505.909,192.7c0,3.518054-2.851946,6.37-6.37,6.37s-6.37-2.851946-6.37-6.37s2.851946-6.37,6.37-6.37c3.512815.012615,6.357385,2.857185,6.37,6.37Z" transform="translate(2820.22 799.631)" fill="#fff"/><circle r="6.37" transform="translate(1176.49 598.394)" fill="#fff"/><circle r="6.37" transform="translate(2575.49 181.849)" fill="#fff"/><circle r="6.37" transform="translate(1368.91 1076.89)" fill="#fff"/><circle r="6.37" transform="translate(2851.07 1094.52)" fill="#fff"/><path d="M335.039,51.84c0,3.518054-2.851946,6.37-6.37,6.37s-6.37-2.851946-6.37-6.37s2.851946-6.37,6.37-6.37c3.512815.012615,6.357385,2.857185,6.37,6.37Z" transform="translate(1795.07-45.47)" fill="#fff"/><circle r="13.509" transform="translate(1106.979 25.128)" fill="#fff"/><circle r="10.079" transform="translate(370.907 395.406)" fill="#fff"/><path d="M56.079,231.259c0,4.076575-2.45567,7.751744-6.221934,9.311782s-8.101421.697721-10.983995-2.184853-3.744891-7.217731-2.184853-10.983995s5.235207-6.221934,9.311782-6.221934c5.565792.001656,10.077344,4.513208,10.079,10.079Z" transform="translate(76.913 1008.72)" fill="#fff"/><path d="M598.189,215.949c-.000552,5.566348-4.513319,10.078368-10.079667,10.078s-10.078517-4.512985-10.078333-10.079333s4.512652-10.078667,10.079-10.078667c5.566182.001656,10.077896,4.513818,10.079,10.08Z" transform="translate(3329.34 916.862)" fill="#fff"/><path d="M46.818,158.649c0,7.460815-6.048185,13.509-13.509,13.509s-13.509-6.048185-13.509-13.509s6.048185-13.509,13.509-13.509c7.458986.004413,13.504587,6.050014,13.509,13.509Z" transform="translate(-19.8 552.508)" fill="#fff"/></g><g transform="translate(4066.66 4600.53)" opacity="0.55"><path d="M551.68,12.72c0,2.319596,1.880404,4.2,4.2,4.2s4.2-1.880404,4.2-4.2-1.880404-4.2-4.2-4.2c-2.31686.006591-4.193409,1.88314-4.2,4.2Z" transform="translate(3171.19 1.559)" fill="#fff"/><circle r="6.37" transform="translate(3194.33 427.255)" fill="#fff"/><circle r="6.37" transform="translate(607.704 1052.46)" fill="#fff"/><circle r="6.37" transform="translate(1916.56 816.361)" fill="#fff"/><circle r="6.37" transform="translate(1351.97 241.906)" fill="#fff"/><circle r="6.37" transform="translate(1076.4 1154.65)" fill="#fff"/><circle r="6.37" transform="translate(1803.79 66.426)" fill="#fff"/><circle r="13.509" transform="translate(2820.549 85.255)" fill="#fff"/><path d="M526.48,80.789c0,5.566348,4.512319,10.078816,10.078667,10.079s10.078965-4.511986,10.079333-10.078333-4.511652-10.079115-10.078-10.079667c-5.566182.001104-10.078344,4.512818-10.08,10.079Z" transform="translate(3020 374.673)" fill="#fff"/><circle r="10.079" transform="translate(803.901 10.079)" fill="#fff"/><circle r="10.079" transform="translate(2083.779 387.846)" fill="#fff"/><path d="M495.87,25.379c0,5.566348,4.512319,10.078816,10.078667,10.079s10.078965-4.511986,10.079333-10.078333-4.511652-10.079115-10.078-10.079667c-5.566182.001104-10.078344,4.512818-10.08,10.079Z" transform="translate(2836.35 42.237)" fill="#fff"/><path d="M561.92,201.449c0,5.566348,4.512319,10.078816,10.078667,10.079s10.078965-4.511986,10.079333-10.078333-4.511652-10.079115-10.078-10.079667c-5.566182.001104-10.078344,4.512818-10.08,10.079Z" transform="translate(3232.62 1098.58)" fill="#fff"/><path d="M19.81,186.149c0,5.566478,4.512522,10.079,10.079,10.079s10.079-4.512522,10.079-10.079-4.512522-10.079-10.079-10.079c-5.565792.001656-10.077344,4.513208-10.079,10.079Z" transform="translate(-19.81 1006.79)" fill="#fff"/><circle r="13.509" transform="translate(3913.959 771.213)" fill="#fff"/></g></g><g transform="matrix(-.5 0 0 0.5 3815.034991-769.661106)"><g transform="translate(4066.59 4869.25)"><path d="M552.029,67.7c0,2.319596-1.880404,4.2-4.2,4.2s-4.2-1.880404-4.2-4.2s1.880404-4.2,4.2-4.2c2.31686.006591,4.193409,1.88314,4.2,4.2Z" transform="translate(3122.96 62.702)" fill="#fff"/><circle r="6.37" transform="translate(733.206 367.198)" fill="#fff"/><path d="M505.909,192.7c0,3.518054-2.851946,6.37-6.37,6.37s-6.37-2.851946-6.37-6.37s2.851946-6.37,6.37-6.37c3.512815.012615,6.357385,2.857185,6.37,6.37Z" transform="translate(2820.22 799.631)" fill="#fff"/><circle r="6.37" transform="translate(1176.49 598.394)" fill="#fff"/><circle r="6.37" transform="translate(2575.49 181.849)" fill="#fff"/><circle r="6.37" transform="translate(1368.91 1076.89)" fill="#fff"/><circle r="6.37" transform="translate(2851.07 1094.52)" fill="#fff"/><path d="M335.039,51.84c0,3.518054-2.851946,6.37-6.37,6.37s-6.37-2.851946-6.37-6.37s2.851946-6.37,6.37-6.37c3.512815.012615,6.357385,2.857185,6.37,6.37Z" transform="translate(1795.07-45.47)" fill="#fff"/><circle r="13.509" transform="translate(1106.979 25.128)" fill="#fff"/><circle r="10.079" transform="translate(370.907 395.406)" fill="#fff"/><path d="M56.079,231.259c0,4.076575-2.45567,7.751744-6.221934,9.311782s-8.101421.697721-10.983995-2.184853-3.744891-7.217731-2.184853-10.983995s5.235207-6.221934,9.311782-6.221934c5.565792.001656,10.077344,4.513208,10.079,10.079Z" transform="translate(76.913 1008.72)" fill="#fff"/><path d="M598.189,215.949c-.000552,5.566348-4.513319,10.078368-10.079667,10.078s-10.078517-4.512985-10.078333-10.079333s4.512652-10.078667,10.079-10.078667c5.566182.001656,10.077896,4.513818,10.079,10.08Z" transform="translate(3329.34 916.862)" fill="#fff"/><path d="M46.818,158.649c0,7.460815-6.048185,13.509-13.509,13.509s-13.509-6.048185-13.509-13.509s6.048185-13.509,13.509-13.509c7.458986.004413,13.504587,6.050014,13.509,13.509Z" transform="translate(-19.8 552.508)" fill="#fff"/></g><g transform="translate(4066.66 4600.53)" opacity="0.55"><path d="M551.68,12.72c0,2.319596,1.880404,4.2,4.2,4.2s4.2-1.880404,4.2-4.2-1.880404-4.2-4.2-4.2c-2.31686.006591-4.193409,1.88314-4.2,4.2Z" transform="translate(3171.19 1.559)" fill="#fff"/><circle r="6.37" transform="translate(3194.33 427.255)" fill="#fff"/><circle r="6.37" transform="translate(607.704 1052.46)" fill="#fff"/><circle r="6.37" transform="translate(1916.56 816.361)" fill="#fff"/><circle r="6.37" transform="translate(1351.97 241.906)" fill="#fff"/><circle r="6.37" transform="translate(1076.4 1154.65)" fill="#fff"/><circle r="6.37" transform="translate(1803.79 66.426)" fill="#fff"/><circle r="13.509" transform="translate(2820.549 85.255)" fill="#fff"/><path d="M526.48,80.789c0,5.566348,4.512319,10.078816,10.078667,10.079s10.078965-4.511986,10.079333-10.078333-4.511652-10.079115-10.078-10.079667c-5.566182.001104-10.078344,4.512818-10.08,10.079Z" transform="translate(3020 374.673)" fill="#fff"/><circle r="10.079" transform="translate(803.901 10.079)" fill="#fff"/><circle r="10.079" transform="translate(2083.779 387.846)" fill="#fff"/><path d="M495.87,25.379c0,5.566348,4.512319,10.078816,10.078667,10.079s10.078965-4.511986,10.079333-10.078333-4.511652-10.079115-10.078-10.079667c-5.566182.001104-10.078344,4.512818-10.08,10.079Z" transform="translate(2836.35 42.237)" fill="#fff"/><path d="M561.92,201.449c0,5.566348,4.512319,10.078816,10.078667,10.079s10.078965-4.511986,10.079333-10.078333-4.511652-10.079115-10.078-10.079667c-5.566182.001104-10.078344,4.512818-10.08,10.079Z" transform="translate(3232.62 1098.58)" fill="#fff"/><path d="M19.81,186.149c0,5.566478,4.512522,10.079,10.079,10.079s10.079-4.512522,10.079-10.079-4.512522-10.079-10.079-10.079c-5.565792.001656-10.077344,4.513208-10.079,10.079Z" transform="translate(-19.81 1006.79)" fill="#fff"/><circle r="13.509" transform="translate(3913.959 771.213)" fill="#fff"/></g></g><g transform="matrix(.5 0 0-.5-79.609595 3072.32058)"><g transform="translate(4066.59 4869.25)"><path d="M552.029,67.7c0,2.319596-1.880404,4.2-4.2,4.2s-4.2-1.880404-4.2-4.2s1.880404-4.2,4.2-4.2c2.31686.006591,4.193409,1.88314,4.2,4.2Z" transform="translate(3122.96 62.702)" fill="#fff"/><circle r="6.37" transform="translate(733.206 367.198)" fill="#fff"/><path d="M505.909,192.7c0,3.518054-2.851946,6.37-6.37,6.37s-6.37-2.851946-6.37-6.37s2.851946-6.37,6.37-6.37c3.512815.012615,6.357385,2.857185,6.37,6.37Z" transform="translate(2820.22 799.631)" fill="#fff"/><circle r="6.37" transform="translate(1176.49 598.394)" fill="#fff"/><circle r="6.37" transform="translate(2575.49 181.849)" fill="#fff"/><circle r="6.37" transform="translate(1368.91 1076.89)" fill="#fff"/><circle r="6.37" transform="translate(2851.07 1094.52)" fill="#fff"/><path d="M335.039,51.84c0,3.518054-2.851946,6.37-6.37,6.37s-6.37-2.851946-6.37-6.37s2.851946-6.37,6.37-6.37c3.512815.012615,6.357385,2.857185,6.37,6.37Z" transform="translate(1795.07-45.47)" fill="#fff"/><circle r="13.509" transform="translate(1106.979 25.128)" fill="#fff"/><circle r="10.079" transform="translate(370.907 395.406)" fill="#fff"/><path d="M56.079,231.259c0,4.076575-2.45567,7.751744-6.221934,9.311782s-8.101421.697721-10.983995-2.184853-3.744891-7.217731-2.184853-10.983995s5.235207-6.221934,9.311782-6.221934c5.565792.001656,10.077344,4.513208,10.079,10.079Z" transform="translate(76.913 1008.72)" fill="#fff"/><path d="M598.189,215.949c-.000552,5.566348-4.513319,10.078368-10.079667,10.078s-10.078517-4.512985-10.078333-10.079333s4.512652-10.078667,10.079-10.078667c5.566182.001656,10.077896,4.513818,10.079,10.08Z" transform="translate(3329.34 916.862)" fill="#fff"/><path d="M46.818,158.649c0,7.460815-6.048185,13.509-13.509,13.509s-13.509-6.048185-13.509-13.509s6.048185-13.509,13.509-13.509c7.458986.004413,13.504587,6.050014,13.509,13.509Z" transform="translate(-19.8 552.508)" fill="#fff"/></g><g transform="translate(4066.66 4600.53)" opacity="0.55"><path d="M551.68,12.72c0,2.319596,1.880404,4.2,4.2,4.2s4.2-1.880404,4.2-4.2-1.880404-4.2-4.2-4.2c-2.31686.006591-4.193409,1.88314-4.2,4.2Z" transform="translate(3171.19 1.559)" fill="#fff"/><circle r="6.37" transform="translate(3194.33 427.255)" fill="#fff"/><circle r="6.37" transform="translate(607.704 1052.46)" fill="#fff"/><circle r="6.37" transform="translate(1916.56 816.361)" fill="#fff"/><circle r="6.37" transform="translate(1351.97 241.906)" fill="#fff"/><circle r="6.37" transform="translate(1076.4 1154.65)" fill="#fff"/><circle r="6.37" transform="translate(1803.79 66.426)" fill="#fff"/><circle r="13.509" transform="translate(2820.549 85.255)" fill="#fff"/><path d="M526.48,80.789c0,5.566348,4.512319,10.078816,10.078667,10.079s10.078965-4.511986,10.079333-10.078333-4.511652-10.079115-10.078-10.079667c-5.566182.001104-10.078344,4.512818-10.08,10.079Z" transform="translate(3020 374.673)" fill="#fff"/><circle r="10.079" transform="translate(803.901 10.079)" fill="#fff"/><circle r="10.079" transform="translate(2083.779 387.846)" fill="#fff"/><path d="M495.87,25.379c0,5.566348,4.512319,10.078816,10.078667,10.079s10.078965-4.511986,10.079333-10.078333-4.511652-10.079115-10.078-10.079667c-5.566182.001104-10.078344,4.512818-10.08,10.079Z" transform="translate(2836.35 42.237)" fill="#fff"/><path d="M561.92,201.449c0,5.566348,4.512319,10.078816,10.078667,10.079s10.078965-4.511986,10.079333-10.078333-4.511652-10.079115-10.078-10.079667c-5.566182.001104-10.078344,4.512818-10.08,10.079Z" transform="translate(3232.62 1098.58)" fill="#fff"/><path d="M19.81,186.149c0,5.566478,4.512522,10.079,10.079,10.079s10.079-4.512522,10.079-10.079-4.512522-10.079-10.079-10.079c-5.565792.001656-10.077344,4.513208-10.079,10.079Z" transform="translate(-19.81 1006.79)" fill="#fff"/><circle r="13.509" transform="translate(3913.959 771.213)" fill="#fff"/></g></g><g transform="matrix(.5 0 0 0.5-83.035088-69.733106)"><g transform="translate(4066.59 4869.25)"><path d="M552.029,67.7c0,2.319596-1.880404,4.2-4.2,4.2s-4.2-1.880404-4.2-4.2s1.880404-4.2,4.2-4.2c2.31686.006591,4.193409,1.88314,4.2,4.2Z" transform="translate(3122.96 62.702)" fill="#fff"/><circle r="6.37" transform="translate(733.206 367.198)" fill="#fff"/><path d="M505.909,192.7c0,3.518054-2.851946,6.37-6.37,6.37s-6.37-2.851946-6.37-6.37s2.851946-6.37,6.37-6.37c3.512815.012615,6.357385,2.857185,6.37,6.37Z" transform="translate(2820.22 799.631)" fill="#fff"/><circle r="6.37" transform="translate(1176.49 598.394)" fill="#fff"/><circle r="6.37" transform="translate(2575.49 181.849)" fill="#fff"/><circle r="6.37" transform="translate(1368.91 1076.89)" fill="#fff"/><circle r="6.37" transform="translate(2851.07 1094.52)" fill="#fff"/><path d="M335.039,51.84c0,3.518054-2.851946,6.37-6.37,6.37s-6.37-2.851946-6.37-6.37s2.851946-6.37,6.37-6.37c3.512815.012615,6.357385,2.857185,6.37,6.37Z" transform="translate(1795.07-45.47)" fill="#fff"/><circle r="13.509" transform="translate(1106.979 25.128)" fill="#fff"/><circle r="10.079" transform="translate(370.907 395.406)" fill="#fff"/><path d="M56.079,231.259c0,4.076575-2.45567,7.751744-6.221934,9.311782s-8.101421.697721-10.983995-2.184853-3.744891-7.217731-2.184853-10.983995s5.235207-6.221934,9.311782-6.221934c5.565792.001656,10.077344,4.513208,10.079,10.079Z" transform="translate(76.913 1008.72)" fill="#fff"/><path d="M598.189,215.949c-.000552,5.566348-4.513319,10.078368-10.079667,10.078s-10.078517-4.512985-10.078333-10.079333s4.512652-10.078667,10.079-10.078667c5.566182.001656,10.077896,4.513818,10.079,10.08Z" transform="translate(3329.34 916.862)" fill="#fff"/><path d="M46.818,158.649c0,7.460815-6.048185,13.509-13.509,13.509s-13.509-6.048185-13.509-13.509s6.048185-13.509,13.509-13.509c7.458986.004413,13.504587,6.050014,13.509,13.509Z" transform="translate(-19.8 552.508)" fill="#fff"/></g><g transform="translate(4066.66 4600.53)" opacity="0.55"><path d="M551.68,12.72c0,2.319596,1.880404,4.2,4.2,4.2s4.2-1.880404,4.2-4.2-1.880404-4.2-4.2-4.2c-2.31686.006591-4.193409,1.88314-4.2,4.2Z" transform="translate(3171.19 1.559)" fill="#fff"/><circle r="6.37" transform="translate(3194.33 427.255)" fill="#fff"/><circle r="6.37" transform="translate(607.704 1052.46)" fill="#fff"/><circle r="6.37" transform="translate(1916.56 816.361)" fill="#fff"/><circle r="6.37" transform="translate(1351.97 241.906)" fill="#fff"/><circle r="6.37" transform="translate(1076.4 1154.65)" fill="#fff"/><circle r="6.37" transform="translate(1803.79 66.426)" fill="#fff"/><circle r="13.509" transform="translate(2820.549 85.255)" fill="#fff"/><path d="M526.48,80.789c0,5.566348,4.512319,10.078816,10.078667,10.079s10.078965-4.511986,10.079333-10.078333-4.511652-10.079115-10.078-10.079667c-5.566182.001104-10.078344,4.512818-10.08,10.079Z" transform="translate(3020 374.673)" fill="#fff"/><circle r="10.079" transform="translate(803.901 10.079)" fill="#fff"/><circle r="10.079" transform="translate(2083.779 387.846)" fill="#fff"/><path d="M495.87,25.379c0,5.566348,4.512319,10.078816,10.078667,10.079s10.078965-4.511986,10.079333-10.078333-4.511652-10.079115-10.078-10.079667c-5.566182.001104-10.078344,4.512818-10.08,10.079Z" transform="translate(2836.35 42.237)" fill="#fff"/><path d="M561.92,201.449c0,5.566348,4.512319,10.078816,10.078667,10.079s10.078965-4.511986,10.079333-10.078333-4.511652-10.079115-10.078-10.079667c-5.566182.001104-10.078344,4.512818-10.08,10.079Z" transform="translate(3232.62 1098.58)" fill="#fff"/><path d="M19.81,186.149c0,5.566478,4.512522,10.079,10.079,10.079s10.079-4.512522,10.079-10.079-4.512522-10.079-10.079-10.079c-5.565792.001656-10.077344,4.513208-10.079,10.079Z" transform="translate(-19.81 1006.79)" fill="#fff"/><circle r="13.509" transform="translate(3913.959 771.213)" fill="#fff"/></g></g><g transform="matrix(.5 0 0-.5-2029.869553 3819.043273)"><g transform="translate(4066.59 4869.25)"><path d="M552.029,67.7c0,2.319596-1.880404,4.2-4.2,4.2s-4.2-1.880404-4.2-4.2s1.880404-4.2,4.2-4.2c2.31686.006591,4.193409,1.88314,4.2,4.2Z" transform="translate(3122.96 62.702)" fill="#fff"/><circle r="6.37" transform="translate(733.206 367.198)" fill="#fff"/><path d="M505.909,192.7c0,3.518054-2.851946,6.37-6.37,6.37s-6.37-2.851946-6.37-6.37s2.851946-6.37,6.37-6.37c3.512815.012615,6.357385,2.857185,6.37,6.37Z" transform="translate(2820.22 799.631)" fill="#fff"/><circle r="6.37" transform="translate(1176.49 598.394)" fill="#fff"/><circle r="6.37" transform="translate(2575.49 181.849)" fill="#fff"/><circle r="6.37" transform="translate(1368.91 1076.89)" fill="#fff"/><circle r="6.37" transform="translate(2851.07 1094.52)" fill="#fff"/><path d="M335.039,51.84c0,3.518054-2.851946,6.37-6.37,6.37s-6.37-2.851946-6.37-6.37s2.851946-6.37,6.37-6.37c3.512815.012615,6.357385,2.857185,6.37,6.37Z" transform="translate(1795.07-45.47)" fill="#fff"/><circle r="13.509" transform="translate(1106.979 25.128)" fill="#fff"/><circle r="10.079" transform="translate(370.907 395.406)" fill="#fff"/><path d="M56.079,231.259c0,4.076575-2.45567,7.751744-6.221934,9.311782s-8.101421.697721-10.983995-2.184853-3.744891-7.217731-2.184853-10.983995s5.235207-6.221934,9.311782-6.221934c5.565792.001656,10.077344,4.513208,10.079,10.079Z" transform="translate(76.913 1008.72)" fill="#fff"/><path d="M598.189,215.949c-.000552,5.566348-4.513319,10.078368-10.079667,10.078s-10.078517-4.512985-10.078333-10.079333s4.512652-10.078667,10.079-10.078667c5.566182.001656,10.077896,4.513818,10.079,10.08Z" transform="translate(3329.34 916.862)" fill="#fff"/><path d="M46.818,158.649c0,7.460815-6.048185,13.509-13.509,13.509s-13.509-6.048185-13.509-13.509s6.048185-13.509,13.509-13.509c7.458986.004413,13.504587,6.050014,13.509,13.509Z" transform="translate(-19.8 552.508)" fill="#fff"/></g><g transform="translate(4066.66 4600.53)" opacity="0.55"><path d="M551.68,12.72c0,2.319596,1.880404,4.2,4.2,4.2s4.2-1.880404,4.2-4.2-1.880404-4.2-4.2-4.2c-2.31686.006591-4.193409,1.88314-4.2,4.2Z" transform="translate(3171.19 1.559)" fill="#fff"/><circle r="6.37" transform="translate(3194.33 427.255)" fill="#fff"/><circle r="6.37" transform="translate(607.704 1052.46)" fill="#fff"/><circle r="6.37" transform="translate(1916.56 816.361)" fill="#fff"/><circle r="6.37" transform="translate(1351.97 241.906)" fill="#fff"/><circle r="6.37" transform="translate(1076.4 1154.65)" fill="#fff"/><circle r="6.37" transform="translate(1803.79 66.426)" fill="#fff"/><circle r="13.509" transform="translate(2820.549 85.255)" fill="#fff"/><path d="M526.48,80.789c0,5.566348,4.512319,10.078816,10.078667,10.079s10.078965-4.511986,10.079333-10.078333-4.511652-10.079115-10.078-10.079667c-5.566182.001104-10.078344,4.512818-10.08,10.079Z" transform="translate(3020 374.673)" fill="#fff"/><circle r="10.079" transform="translate(803.901 10.079)" fill="#fff"/><circle r="10.079" transform="translate(2083.779 387.846)" fill="#fff"/><path d="M495.87,25.379c0,5.566348,4.512319,10.078816,10.078667,10.079s10.078965-4.511986,10.079333-10.078333-4.511652-10.079115-10.078-10.079667c-5.566182.001104-10.078344,4.512818-10.08,10.079Z" transform="translate(2836.35 42.237)" fill="#fff"/><path d="M561.92,201.449c0,5.566348,4.512319,10.078816,10.078667,10.079s10.078965-4.511986,10.079333-10.078333-4.511652-10.079115-10.078-10.079667c-5.566182.001104-10.078344,4.512818-10.08,10.079Z" transform="translate(3232.62 1098.58)" fill="#fff"/><path d="M19.81,186.149c0,5.566478,4.512522,10.079,10.079,10.079s10.079-4.512522,10.079-10.079-4.512522-10.079-10.079-10.079c-5.565792.001656-10.077344,4.513208-10.079,10.079Z" transform="translate(-19.81 1006.79)" fill="#fff"/><circle r="13.509" transform="translate(3913.959 771.213)" fill="#fff"/></g></g><g transform="matrix(.5 0 0 0.5-2019.786088-2300.264892)"><g transform="translate(4066.59 4869.25)"><path d="M552.029,67.7c0,2.319596-1.880404,4.2-4.2,4.2s-4.2-1.880404-4.2-4.2s1.880404-4.2,4.2-4.2c2.31686.006591,4.193409,1.88314,4.2,4.2Z" transform="translate(3122.96 62.702)" fill="#fff"/><circle r="6.37" transform="translate(733.206 367.198)" fill="#fff"/><path d="M505.909,192.7c0,3.518054-2.851946,6.37-6.37,6.37s-6.37-2.851946-6.37-6.37s2.851946-6.37,6.37-6.37c3.512815.012615,6.357385,2.857185,6.37,6.37Z" transform="translate(2820.22 799.631)" fill="#fff"/><circle r="6.37" transform="translate(1176.49 598.394)" fill="#fff"/><circle r="6.37" transform="translate(2575.49 181.849)" fill="#fff"/><circle r="6.37" transform="translate(1368.91 1076.89)" fill="#fff"/><circle r="6.37" transform="translate(2851.07 1094.52)" fill="#fff"/><path d="M335.039,51.84c0,3.518054-2.851946,6.37-6.37,6.37s-6.37-2.851946-6.37-6.37s2.851946-6.37,6.37-6.37c3.512815.012615,6.357385,2.857185,6.37,6.37Z" transform="translate(1795.07-45.47)" fill="#fff"/><circle r="13.509" transform="translate(1106.979 25.128)" fill="#fff"/><circle r="10.079" transform="translate(370.907 395.406)" fill="#fff"/><path d="M56.079,231.259c0,4.076575-2.45567,7.751744-6.221934,9.311782s-8.101421.697721-10.983995-2.184853-3.744891-7.217731-2.184853-10.983995s5.235207-6.221934,9.311782-6.221934c5.565792.001656,10.077344,4.513208,10.079,10.079Z" transform="translate(76.913 1008.72)" fill="#fff"/><path d="M598.189,215.949c-.000552,5.566348-4.513319,10.078368-10.079667,10.078s-10.078517-4.512985-10.078333-10.079333s4.512652-10.078667,10.079-10.078667c5.566182.001656,10.077896,4.513818,10.079,10.08Z" transform="translate(3329.34 916.862)" fill="#fff"/><path d="M46.818,158.649c0,7.460815-6.048185,13.509-13.509,13.509s-13.509-6.048185-13.509-13.509s6.048185-13.509,13.509-13.509c7.458986.004413,13.504587,6.050014,13.509,13.509Z" transform="translate(-19.8 552.508)" fill="#fff"/></g><g transform="translate(4066.66 4600.53)" opacity="0.55"><path d="M551.68,12.72c0,2.319596,1.880404,4.2,4.2,4.2s4.2-1.880404,4.2-4.2-1.880404-4.2-4.2-4.2c-2.31686.006591-4.193409,1.88314-4.2,4.2Z" transform="translate(3171.19 1.559)" fill="#fff"/><circle r="6.37" transform="translate(3194.33 427.255)" fill="#fff"/><circle r="6.37" transform="translate(607.704 1052.46)" fill="#fff"/><circle r="6.37" transform="translate(1916.56 816.361)" fill="#fff"/><circle r="6.37" transform="translate(1351.97 241.906)" fill="#fff"/><circle r="6.37" transform="translate(1076.4 1154.65)" fill="#fff"/><circle r="6.37" transform="translate(1803.79 66.426)" fill="#fff"/><circle r="13.509" transform="translate(2820.549 85.255)" fill="#fff"/><path d="M526.48,80.789c0,5.566348,4.512319,10.078816,10.078667,10.079s10.078965-4.511986,10.079333-10.078333-4.511652-10.079115-10.078-10.079667c-5.566182.001104-10.078344,4.512818-10.08,10.079Z" transform="translate(3020 374.673)" fill="#fff"/><circle r="10.079" transform="translate(803.901 10.079)" fill="#fff"/><circle r="10.079" transform="translate(2083.779 387.846)" fill="#fff"/><path d="M495.87,25.379c0,5.566348,4.512319,10.078816,10.078667,10.079s10.078965-4.511986,10.079333-10.078333-4.511652-10.079115-10.078-10.079667c-5.566182.001104-10.078344,4.512818-10.08,10.079Z" transform="translate(2836.35 42.237)" fill="#fff"/><path d="M561.92,201.449c0,5.566348,4.512319,10.078816,10.078667,10.079s10.078965-4.511986,10.079333-10.078333-4.511652-10.079115-10.078-10.079667c-5.566182.001104-10.078344,4.512818-10.08,10.079Z" transform="translate(3232.62 1098.58)" fill="#fff"/><path d="M19.81,186.149c0,5.566478,4.512522,10.079,10.079,10.079s10.079-4.512522,10.079-10.079-4.512522-10.079-10.079-10.079c-5.565792.001656-10.077344,4.513208-10.079,10.079Z" transform="translate(-19.81 1006.79)" fill="#fff"/><circle r="13.509" transform="translate(3913.959 771.213)" fill="#fff"/></g></g></svg>
